<mxfile host="Electron" agent="Mozilla/5.0 (Windows NT 10.0; Win64; x64) AppleWebKit/537.36 (KHTML, like Gecko) draw.io/24.7.5 Chrome/126.0.6478.183 Electron/31.3.0 Safari/537.36" version="24.7.5">
  <diagram id="R2lEEEUBdFMjLlhIrx00" name="Page-1">
    <mxGraphModel dx="665" dy="776" grid="1" gridSize="10" guides="1" tooltips="1" connect="1" arrows="1" fold="1" page="1" pageScale="1" pageWidth="850" pageHeight="1100" math="0" shadow="0" extFonts="Permanent Marker^https://fonts.googleapis.com/css?family=Permanent+Marker">
      <root>
        <mxCell id="0" />
        <mxCell id="1" parent="0" />
        <mxCell id="W-xH0kflVY6gRq8pkjjk-3" value="Mozos" style="whiteSpace=wrap;html=1;align=center;" vertex="1" parent="1">
          <mxGeometry x="780" y="210" width="100" height="40" as="geometry" />
        </mxCell>
        <mxCell id="W-xH0kflVY6gRq8pkjjk-4" value="Salones" style="whiteSpace=wrap;html=1;align=center;" vertex="1" parent="1">
          <mxGeometry x="300" y="650" width="100" height="40" as="geometry" />
        </mxCell>
        <mxCell id="W-xH0kflVY6gRq8pkjjk-7" value="Nombre_Salón" style="ellipse;whiteSpace=wrap;html=1;align=center;fontStyle=4;" vertex="1" parent="1">
          <mxGeometry x="300" y="780" width="100" height="40" as="geometry" />
        </mxCell>
        <mxCell id="W-xH0kflVY6gRq8pkjjk-8" value="" style="endArrow=none;html=1;rounded=0;exitX=0.5;exitY=0;exitDx=0;exitDy=0;entryX=0.5;entryY=1;entryDx=0;entryDy=0;" edge="1" parent="1" source="W-xH0kflVY6gRq8pkjjk-7" target="W-xH0kflVY6gRq8pkjjk-4">
          <mxGeometry relative="1" as="geometry">
            <mxPoint x="240" y="640" as="sourcePoint" />
            <mxPoint x="400" y="640" as="targetPoint" />
          </mxGeometry>
        </mxCell>
        <mxCell id="W-xH0kflVY6gRq8pkjjk-10" value="Tipo_Salón" style="ellipse;whiteSpace=wrap;html=1;align=center;" vertex="1" parent="1">
          <mxGeometry x="60" y="650" width="100" height="40" as="geometry" />
        </mxCell>
        <mxCell id="W-xH0kflVY6gRq8pkjjk-11" value="" style="endArrow=none;html=1;rounded=0;exitX=1;exitY=0.5;exitDx=0;exitDy=0;entryX=0;entryY=0.5;entryDx=0;entryDy=0;" edge="1" parent="1" source="W-xH0kflVY6gRq8pkjjk-10" target="W-xH0kflVY6gRq8pkjjk-4">
          <mxGeometry relative="1" as="geometry">
            <mxPoint x="240" y="640" as="sourcePoint" />
            <mxPoint x="400" y="640" as="targetPoint" />
          </mxGeometry>
        </mxCell>
        <mxCell id="W-xH0kflVY6gRq8pkjjk-13" value="Pulgadas" style="ellipse;whiteSpace=wrap;html=1;align=center;" vertex="1" parent="1">
          <mxGeometry x="425" y="720" width="100" height="40" as="geometry" />
        </mxCell>
        <mxCell id="W-xH0kflVY6gRq8pkjjk-14" value="Marca" style="ellipse;whiteSpace=wrap;html=1;align=center;" vertex="1" parent="1">
          <mxGeometry x="625" y="720" width="100" height="40" as="geometry" />
        </mxCell>
        <mxCell id="W-xH0kflVY6gRq8pkjjk-15" value="" style="endArrow=none;html=1;rounded=0;exitX=1;exitY=1;exitDx=0;exitDy=0;entryX=0;entryY=0;entryDx=0;entryDy=0;" edge="1" parent="1" source="W-xH0kflVY6gRq8pkjjk-54" target="W-xH0kflVY6gRq8pkjjk-14">
          <mxGeometry relative="1" as="geometry">
            <mxPoint x="600" y="700" as="sourcePoint" />
            <mxPoint x="628" y="759" as="targetPoint" />
          </mxGeometry>
        </mxCell>
        <mxCell id="W-xH0kflVY6gRq8pkjjk-16" value="" style="endArrow=none;html=1;rounded=0;exitX=0.784;exitY=0.09;exitDx=0;exitDy=0;entryX=0.224;entryY=0.824;entryDx=0;entryDy=0;exitPerimeter=0;entryPerimeter=0;" edge="1" parent="1" source="W-xH0kflVY6gRq8pkjjk-13" target="W-xH0kflVY6gRq8pkjjk-54">
          <mxGeometry relative="1" as="geometry">
            <mxPoint x="325" y="650" as="sourcePoint" />
            <mxPoint x="550" y="700" as="targetPoint" />
          </mxGeometry>
        </mxCell>
        <mxCell id="W-xH0kflVY6gRq8pkjjk-25" value="" style="group" vertex="1" connectable="0" parent="1">
          <mxGeometry x="110" y="40" width="390" height="210" as="geometry" />
        </mxCell>
        <mxCell id="W-xH0kflVY6gRq8pkjjk-2" value="Mesas" style="whiteSpace=wrap;html=1;align=center;" vertex="1" parent="W-xH0kflVY6gRq8pkjjk-25">
          <mxGeometry x="190" y="170" width="100" height="40" as="geometry" />
        </mxCell>
        <mxCell id="W-xH0kflVY6gRq8pkjjk-17" value="Color" style="ellipse;whiteSpace=wrap;html=1;align=center;" vertex="1" parent="W-xH0kflVY6gRq8pkjjk-25">
          <mxGeometry x="190" width="100" height="40" as="geometry" />
        </mxCell>
        <mxCell id="W-xH0kflVY6gRq8pkjjk-18" value="Cant_Sillas" style="ellipse;whiteSpace=wrap;html=1;align=center;" vertex="1" parent="W-xH0kflVY6gRq8pkjjk-25">
          <mxGeometry y="170" width="100" height="40" as="geometry" />
        </mxCell>
        <mxCell id="W-xH0kflVY6gRq8pkjjk-19" value="Material" style="ellipse;whiteSpace=wrap;html=1;align=center;" vertex="1" parent="W-xH0kflVY6gRq8pkjjk-25">
          <mxGeometry x="290" y="70" width="100" height="40" as="geometry" />
        </mxCell>
        <mxCell id="W-xH0kflVY6gRq8pkjjk-21" value="" style="endArrow=none;html=1;rounded=0;exitX=1;exitY=1;exitDx=0;exitDy=0;entryX=0.25;entryY=0;entryDx=0;entryDy=0;" edge="1" parent="W-xH0kflVY6gRq8pkjjk-25" source="W-xH0kflVY6gRq8pkjjk-68" target="W-xH0kflVY6gRq8pkjjk-2">
          <mxGeometry relative="1" as="geometry">
            <mxPoint x="140" y="109.99999999999977" as="sourcePoint" />
            <mxPoint x="390" y="360" as="targetPoint" />
          </mxGeometry>
        </mxCell>
        <mxCell id="W-xH0kflVY6gRq8pkjjk-22" value="" style="endArrow=none;html=1;rounded=0;exitX=1;exitY=0.5;exitDx=0;exitDy=0;entryX=0;entryY=0.5;entryDx=0;entryDy=0;" edge="1" parent="W-xH0kflVY6gRq8pkjjk-25" source="W-xH0kflVY6gRq8pkjjk-18" target="W-xH0kflVY6gRq8pkjjk-2">
          <mxGeometry relative="1" as="geometry">
            <mxPoint x="240" y="280" as="sourcePoint" />
            <mxPoint x="400" y="280" as="targetPoint" />
          </mxGeometry>
        </mxCell>
        <mxCell id="W-xH0kflVY6gRq8pkjjk-23" value="" style="endArrow=none;html=1;rounded=0;exitX=0.5;exitY=1;exitDx=0;exitDy=0;" edge="1" parent="W-xH0kflVY6gRq8pkjjk-25" source="W-xH0kflVY6gRq8pkjjk-17" target="W-xH0kflVY6gRq8pkjjk-2">
          <mxGeometry relative="1" as="geometry">
            <mxPoint x="240" y="280" as="sourcePoint" />
            <mxPoint x="400" y="280" as="targetPoint" />
          </mxGeometry>
        </mxCell>
        <mxCell id="W-xH0kflVY6gRq8pkjjk-24" value="" style="endArrow=none;html=1;rounded=0;exitX=0;exitY=1;exitDx=0;exitDy=0;entryX=0.75;entryY=0;entryDx=0;entryDy=0;" edge="1" parent="W-xH0kflVY6gRq8pkjjk-25" source="W-xH0kflVY6gRq8pkjjk-19" target="W-xH0kflVY6gRq8pkjjk-2">
          <mxGeometry relative="1" as="geometry">
            <mxPoint x="230" y="360" as="sourcePoint" />
            <mxPoint x="390" y="360" as="targetPoint" />
          </mxGeometry>
        </mxCell>
        <mxCell id="W-xH0kflVY6gRq8pkjjk-68" value="&lt;span style=&quot;border-bottom: 1px dotted&quot;&gt;Num_Mesa&lt;/span&gt;&lt;div&gt;(Nombre_Salón)&lt;/div&gt;" style="ellipse;whiteSpace=wrap;html=1;align=center;" vertex="1" parent="W-xH0kflVY6gRq8pkjjk-25">
          <mxGeometry x="60" y="60" width="110" height="60" as="geometry" />
        </mxCell>
        <mxCell id="W-xH0kflVY6gRq8pkjjk-27" value="Pertenece a" style="shape=rhombus;perimeter=rhombusPerimeter;whiteSpace=wrap;html=1;align=center;" vertex="1" parent="1">
          <mxGeometry x="290" y="400" width="120" height="60" as="geometry" />
        </mxCell>
        <mxCell id="W-xH0kflVY6gRq8pkjjk-28" value="" style="fontSize=12;html=1;endArrow=ERmany;rounded=0;exitX=0.5;exitY=0;exitDx=0;exitDy=0;entryX=0.5;entryY=1;entryDx=0;entryDy=0;" edge="1" parent="1" source="W-xH0kflVY6gRq8pkjjk-27" target="W-xH0kflVY6gRq8pkjjk-2">
          <mxGeometry width="100" height="100" relative="1" as="geometry">
            <mxPoint x="390" y="410" as="sourcePoint" />
            <mxPoint x="490" y="310" as="targetPoint" />
          </mxGeometry>
        </mxCell>
        <mxCell id="W-xH0kflVY6gRq8pkjjk-29" value="" style="fontSize=12;html=1;endArrow=ERone;endFill=1;rounded=0;exitX=0.5;exitY=1;exitDx=0;exitDy=0;entryX=0.5;entryY=0;entryDx=0;entryDy=0;" edge="1" parent="1" source="W-xH0kflVY6gRq8pkjjk-27" target="W-xH0kflVY6gRq8pkjjk-4">
          <mxGeometry width="100" height="100" relative="1" as="geometry">
            <mxPoint x="315" y="660" as="sourcePoint" />
            <mxPoint x="415" y="560" as="targetPoint" />
          </mxGeometry>
        </mxCell>
        <mxCell id="W-xH0kflVY6gRq8pkjjk-30" value="DNI" style="ellipse;whiteSpace=wrap;html=1;align=center;fontStyle=4;" vertex="1" parent="1">
          <mxGeometry x="950" y="100" width="100" height="40" as="geometry" />
        </mxCell>
        <mxCell id="W-xH0kflVY6gRq8pkjjk-31" value="Apellido1" style="ellipse;whiteSpace=wrap;html=1;align=center;" vertex="1" parent="1">
          <mxGeometry x="930" y="50" width="100" height="40" as="geometry" />
        </mxCell>
        <mxCell id="W-xH0kflVY6gRq8pkjjk-32" value="Ciudad" style="ellipse;whiteSpace=wrap;html=1;align=center;" vertex="1" parent="1">
          <mxGeometry x="1090" y="250" width="100" height="40" as="geometry" />
        </mxCell>
        <mxCell id="W-xH0kflVY6gRq8pkjjk-33" value="Altura_Calle" style="ellipse;whiteSpace=wrap;html=1;align=center;" vertex="1" parent="1">
          <mxGeometry x="1090" y="300" width="100" height="40" as="geometry" />
        </mxCell>
        <mxCell id="W-xH0kflVY6gRq8pkjjk-34" value="Calle" style="ellipse;whiteSpace=wrap;html=1;align=center;" vertex="1" parent="1">
          <mxGeometry x="1090" y="350" width="100" height="40" as="geometry" />
        </mxCell>
        <mxCell id="W-xH0kflVY6gRq8pkjjk-35" value="Edad" style="ellipse;whiteSpace=wrap;html=1;align=center;" vertex="1" parent="1">
          <mxGeometry x="940" y="160" width="100" height="40" as="geometry" />
        </mxCell>
        <mxCell id="W-xH0kflVY6gRq8pkjjk-36" value="Nombre_Mozo" style="ellipse;whiteSpace=wrap;html=1;align=center;" vertex="1" parent="1">
          <mxGeometry x="780" y="120" width="100" height="40" as="geometry" />
        </mxCell>
        <mxCell id="W-xH0kflVY6gRq8pkjjk-37" value="Nombre1" style="ellipse;whiteSpace=wrap;html=1;align=center;" vertex="1" parent="1">
          <mxGeometry x="780" y="40" width="100" height="40" as="geometry" />
        </mxCell>
        <mxCell id="W-xH0kflVY6gRq8pkjjk-38" value="" style="endArrow=none;html=1;rounded=0;exitX=1;exitY=0.75;exitDx=0;exitDy=0;entryX=0;entryY=0;entryDx=0;entryDy=0;" edge="1" parent="1" source="W-xH0kflVY6gRq8pkjjk-3" target="W-xH0kflVY6gRq8pkjjk-46">
          <mxGeometry relative="1" as="geometry">
            <mxPoint x="830" y="280" as="sourcePoint" />
            <mxPoint x="990" y="280" as="targetPoint" />
          </mxGeometry>
        </mxCell>
        <mxCell id="W-xH0kflVY6gRq8pkjjk-39" value="" style="endArrow=none;html=1;rounded=0;exitX=1;exitY=0.5;exitDx=0;exitDy=0;entryX=0;entryY=1;entryDx=0;entryDy=0;" edge="1" parent="1" source="W-xH0kflVY6gRq8pkjjk-3" target="W-xH0kflVY6gRq8pkjjk-35">
          <mxGeometry relative="1" as="geometry">
            <mxPoint x="830" y="280" as="sourcePoint" />
            <mxPoint x="990" y="280" as="targetPoint" />
          </mxGeometry>
        </mxCell>
        <mxCell id="W-xH0kflVY6gRq8pkjjk-41" value="" style="endArrow=none;html=1;rounded=0;exitX=0;exitY=1;exitDx=0;exitDy=0;entryX=1;entryY=0;entryDx=0;entryDy=0;" edge="1" parent="1" source="W-xH0kflVY6gRq8pkjjk-31" target="W-xH0kflVY6gRq8pkjjk-36">
          <mxGeometry relative="1" as="geometry">
            <mxPoint x="830" y="280" as="sourcePoint" />
            <mxPoint x="990" y="280" as="targetPoint" />
          </mxGeometry>
        </mxCell>
        <mxCell id="W-xH0kflVY6gRq8pkjjk-42" value="" style="endArrow=none;html=1;rounded=0;exitX=0.5;exitY=1;exitDx=0;exitDy=0;entryX=0.5;entryY=0;entryDx=0;entryDy=0;" edge="1" parent="1" source="W-xH0kflVY6gRq8pkjjk-37" target="W-xH0kflVY6gRq8pkjjk-36">
          <mxGeometry relative="1" as="geometry">
            <mxPoint x="830" y="280" as="sourcePoint" />
            <mxPoint x="990" y="280" as="targetPoint" />
          </mxGeometry>
        </mxCell>
        <mxCell id="W-xH0kflVY6gRq8pkjjk-43" value="" style="endArrow=none;html=1;rounded=0;exitX=0.5;exitY=0;exitDx=0;exitDy=0;entryX=0.5;entryY=1;entryDx=0;entryDy=0;" edge="1" parent="1" source="W-xH0kflVY6gRq8pkjjk-3" target="W-xH0kflVY6gRq8pkjjk-36">
          <mxGeometry relative="1" as="geometry">
            <mxPoint x="830" y="280" as="sourcePoint" />
            <mxPoint x="990" y="280" as="targetPoint" />
          </mxGeometry>
        </mxCell>
        <mxCell id="W-xH0kflVY6gRq8pkjjk-44" value="" style="endArrow=none;html=1;rounded=0;exitX=0;exitY=1;exitDx=0;exitDy=0;entryX=0.75;entryY=0;entryDx=0;entryDy=0;" edge="1" parent="1" source="W-xH0kflVY6gRq8pkjjk-30" target="W-xH0kflVY6gRq8pkjjk-3">
          <mxGeometry relative="1" as="geometry">
            <mxPoint x="830" y="280" as="sourcePoint" />
            <mxPoint x="990" y="280" as="targetPoint" />
          </mxGeometry>
        </mxCell>
        <mxCell id="W-xH0kflVY6gRq8pkjjk-46" value="Domicilio" style="ellipse;whiteSpace=wrap;html=1;align=center;" vertex="1" parent="1">
          <mxGeometry x="940" y="250" width="100" height="40" as="geometry" />
        </mxCell>
        <mxCell id="W-xH0kflVY6gRq8pkjjk-48" value="" style="endArrow=none;html=1;rounded=0;exitX=0;exitY=0.5;exitDx=0;exitDy=0;entryX=0.5;entryY=1;entryDx=0;entryDy=0;" edge="1" parent="1" source="W-xH0kflVY6gRq8pkjjk-34" target="W-xH0kflVY6gRq8pkjjk-46">
          <mxGeometry relative="1" as="geometry">
            <mxPoint x="870" y="250" as="sourcePoint" />
            <mxPoint x="1030" y="250" as="targetPoint" />
          </mxGeometry>
        </mxCell>
        <mxCell id="W-xH0kflVY6gRq8pkjjk-49" value="" style="endArrow=none;html=1;rounded=0;exitX=0;exitY=0.5;exitDx=0;exitDy=0;entryX=1;entryY=1;entryDx=0;entryDy=0;" edge="1" parent="1" source="W-xH0kflVY6gRq8pkjjk-33" target="W-xH0kflVY6gRq8pkjjk-46">
          <mxGeometry relative="1" as="geometry">
            <mxPoint x="870" y="250" as="sourcePoint" />
            <mxPoint x="1030" y="250" as="targetPoint" />
          </mxGeometry>
        </mxCell>
        <mxCell id="W-xH0kflVY6gRq8pkjjk-50" value="" style="endArrow=none;html=1;rounded=0;exitX=1;exitY=0.5;exitDx=0;exitDy=0;" edge="1" parent="1" source="W-xH0kflVY6gRq8pkjjk-46">
          <mxGeometry relative="1" as="geometry">
            <mxPoint x="870" y="250" as="sourcePoint" />
            <mxPoint x="1090" y="270" as="targetPoint" />
          </mxGeometry>
        </mxCell>
        <mxCell id="W-xH0kflVY6gRq8pkjjk-51" value="" style="fontSize=12;html=1;endArrow=ERmany;rounded=0;entryX=1;entryY=0;entryDx=0;entryDy=0;entryPerimeter=0;exitX=0;exitY=0.5;exitDx=0;exitDy=0;" edge="1" parent="1" source="W-xH0kflVY6gRq8pkjjk-52" target="W-xH0kflVY6gRq8pkjjk-2">
          <mxGeometry width="100" height="100" relative="1" as="geometry">
            <mxPoint x="560" y="230" as="sourcePoint" />
            <mxPoint x="700" y="230" as="targetPoint" />
          </mxGeometry>
        </mxCell>
        <mxCell id="W-xH0kflVY6gRq8pkjjk-52" value="Asignado a" style="shape=rhombus;perimeter=rhombusPerimeter;whiteSpace=wrap;html=1;align=center;" vertex="1" parent="1">
          <mxGeometry x="560" y="180" width="120" height="60" as="geometry" />
        </mxCell>
        <mxCell id="W-xH0kflVY6gRq8pkjjk-53" value="" style="fontSize=12;html=1;endArrow=ERone;endFill=1;rounded=0;exitX=1;exitY=0.5;exitDx=0;exitDy=0;entryX=0;entryY=0;entryDx=0;entryDy=0;" edge="1" parent="1" source="W-xH0kflVY6gRq8pkjjk-52" target="W-xH0kflVY6gRq8pkjjk-3">
          <mxGeometry width="100" height="100" relative="1" as="geometry">
            <mxPoint x="740" y="260" as="sourcePoint" />
            <mxPoint x="840" y="160" as="targetPoint" />
          </mxGeometry>
        </mxCell>
        <mxCell id="W-xH0kflVY6gRq8pkjjk-54" value="Televisor" style="ellipse;whiteSpace=wrap;html=1;align=center;" vertex="1" parent="1">
          <mxGeometry x="525" y="650" width="100" height="40" as="geometry" />
        </mxCell>
        <mxCell id="W-xH0kflVY6gRq8pkjjk-55" value="" style="endArrow=none;html=1;rounded=0;exitX=1;exitY=0.5;exitDx=0;exitDy=0;entryX=0;entryY=0.5;entryDx=0;entryDy=0;" edge="1" parent="1" source="W-xH0kflVY6gRq8pkjjk-4" target="W-xH0kflVY6gRq8pkjjk-54">
          <mxGeometry relative="1" as="geometry">
            <mxPoint x="395" y="560" as="sourcePoint" />
            <mxPoint x="555" y="560" as="targetPoint" />
          </mxGeometry>
        </mxCell>
        <mxCell id="W-xH0kflVY6gRq8pkjjk-57" value="Fecha_Finalización" style="ellipse;whiteSpace=wrap;html=1;align=center;" vertex="1" parent="1">
          <mxGeometry x="650" y="20" width="120" height="60" as="geometry" />
        </mxCell>
        <mxCell id="W-xH0kflVY6gRq8pkjjk-60" value="&lt;span style=&quot;border-bottom: 1px dotted&quot;&gt;Fecha_Inicio&lt;br&gt;(Num_Mesa)(DNI_Mozo)&lt;/span&gt;" style="ellipse;whiteSpace=wrap;html=1;align=center;" vertex="1" parent="1">
          <mxGeometry x="460" y="20" width="120" height="60" as="geometry" />
        </mxCell>
        <mxCell id="W-xH0kflVY6gRq8pkjjk-61" value="" style="endArrow=none;html=1;rounded=0;exitX=0.5;exitY=1;exitDx=0;exitDy=0;entryX=0;entryY=0;entryDx=0;entryDy=0;" edge="1" parent="1" source="W-xH0kflVY6gRq8pkjjk-60" target="W-xH0kflVY6gRq8pkjjk-52">
          <mxGeometry relative="1" as="geometry">
            <mxPoint x="420" y="50" as="sourcePoint" />
            <mxPoint x="595" y="79.99999999999977" as="targetPoint" />
          </mxGeometry>
        </mxCell>
        <mxCell id="W-xH0kflVY6gRq8pkjjk-62" value="" style="endArrow=none;html=1;rounded=0;entryX=1;entryY=0;entryDx=0;entryDy=0;exitX=0.5;exitY=1;exitDx=0;exitDy=0;" edge="1" parent="1" source="W-xH0kflVY6gRq8pkjjk-57" target="W-xH0kflVY6gRq8pkjjk-52">
          <mxGeometry relative="1" as="geometry">
            <mxPoint x="420" y="50" as="sourcePoint" />
            <mxPoint x="645" y="79.99999999999977" as="targetPoint" />
          </mxGeometry>
        </mxCell>
        <mxCell id="W-xH0kflVY6gRq8pkjjk-65" value="Reeplaza a" style="shape=rhombus;perimeter=rhombusPerimeter;whiteSpace=wrap;html=1;align=center;" vertex="1" parent="1">
          <mxGeometry x="860" y="340" width="120" height="60" as="geometry" />
        </mxCell>
        <mxCell id="W-xH0kflVY6gRq8pkjjk-66" value="" style="fontSize=12;html=1;endArrow=ERone;endFill=1;rounded=0;exitX=0.5;exitY=0;exitDx=0;exitDy=0;entryX=0.75;entryY=1;entryDx=0;entryDy=0;" edge="1" parent="1" source="W-xH0kflVY6gRq8pkjjk-65" target="W-xH0kflVY6gRq8pkjjk-3">
          <mxGeometry width="100" height="100" relative="1" as="geometry">
            <mxPoint x="830" y="230" as="sourcePoint" />
            <mxPoint x="930" y="130" as="targetPoint" />
          </mxGeometry>
        </mxCell>
        <mxCell id="W-xH0kflVY6gRq8pkjjk-67" value="" style="edgeStyle=elbowEdgeStyle;fontSize=12;html=1;endArrow=ERone;endFill=1;rounded=0;exitX=0;exitY=0.5;exitDx=0;exitDy=0;entryX=0;entryY=1;entryDx=0;entryDy=0;" edge="1" parent="1" source="W-xH0kflVY6gRq8pkjjk-65" target="W-xH0kflVY6gRq8pkjjk-3">
          <mxGeometry width="100" height="100" relative="1" as="geometry">
            <mxPoint x="815" y="500" as="sourcePoint" />
            <mxPoint x="700" y="260" as="targetPoint" />
            <Array as="points">
              <mxPoint x="720" y="330" />
            </Array>
          </mxGeometry>
        </mxCell>
        <mxCell id="W-xH0kflVY6gRq8pkjjk-69" value="Factura" style="whiteSpace=wrap;html=1;align=center;" vertex="1" parent="1">
          <mxGeometry x="560" y="430" width="100" height="40" as="geometry" />
        </mxCell>
        <mxCell id="W-xH0kflVY6gRq8pkjjk-71" value="Num_Factura" style="ellipse;whiteSpace=wrap;html=1;align=center;fontStyle=4;" vertex="1" parent="1">
          <mxGeometry x="560" y="520" width="100" height="40" as="geometry" />
        </mxCell>
        <mxCell id="W-xH0kflVY6gRq8pkjjk-72" value="" style="endArrow=none;html=1;rounded=0;exitX=0.5;exitY=0;exitDx=0;exitDy=0;entryX=0.5;entryY=1;entryDx=0;entryDy=0;" edge="1" parent="1" source="W-xH0kflVY6gRq8pkjjk-71" target="W-xH0kflVY6gRq8pkjjk-69">
          <mxGeometry relative="1" as="geometry">
            <mxPoint x="695" y="380" as="sourcePoint" />
            <mxPoint x="855" y="380" as="targetPoint" />
          </mxGeometry>
        </mxCell>
        <mxCell id="W-xH0kflVY6gRq8pkjjk-73" value="Fecha" style="ellipse;whiteSpace=wrap;html=1;align=center;" vertex="1" parent="1">
          <mxGeometry x="705" y="520" width="100" height="40" as="geometry" />
        </mxCell>
        <mxCell id="W-xH0kflVY6gRq8pkjjk-74" value="" style="endArrow=none;html=1;rounded=0;exitX=1;exitY=1;exitDx=0;exitDy=0;entryX=0;entryY=0;entryDx=0;entryDy=0;" edge="1" parent="1" source="W-xH0kflVY6gRq8pkjjk-69" target="W-xH0kflVY6gRq8pkjjk-73">
          <mxGeometry relative="1" as="geometry">
            <mxPoint x="695" y="380" as="sourcePoint" />
            <mxPoint x="855" y="380" as="targetPoint" />
          </mxGeometry>
        </mxCell>
        <mxCell id="W-xH0kflVY6gRq8pkjjk-75" value="Realizada por" style="shape=rhombus;perimeter=rhombusPerimeter;whiteSpace=wrap;html=1;align=center;" vertex="1" parent="1">
          <mxGeometry x="530" y="240" width="120" height="60" as="geometry" />
        </mxCell>
        <mxCell id="W-xH0kflVY6gRq8pkjjk-76" value="" style="fontSize=12;html=1;endArrow=ERmany;rounded=0;exitX=0.5;exitY=1;exitDx=0;exitDy=0;entryX=0.5;entryY=0;entryDx=0;entryDy=0;" edge="1" parent="1" source="W-xH0kflVY6gRq8pkjjk-75" target="W-xH0kflVY6gRq8pkjjk-69">
          <mxGeometry width="100" height="100" relative="1" as="geometry">
            <mxPoint x="545" y="400" as="sourcePoint" />
            <mxPoint x="645" y="300" as="targetPoint" />
          </mxGeometry>
        </mxCell>
        <mxCell id="W-xH0kflVY6gRq8pkjjk-77" value="" style="edgeStyle=entityRelationEdgeStyle;fontSize=12;html=1;endArrow=ERmany;rounded=0;exitX=1;exitY=0.5;exitDx=0;exitDy=0;entryX=0;entryY=0.25;entryDx=0;entryDy=0;" edge="1" parent="1" source="W-xH0kflVY6gRq8pkjjk-75" target="W-xH0kflVY6gRq8pkjjk-3">
          <mxGeometry width="100" height="100" relative="1" as="geometry">
            <mxPoint x="590" y="330" as="sourcePoint" />
            <mxPoint x="750" y="240" as="targetPoint" />
            <Array as="points">
              <mxPoint x="650" y="250" />
              <mxPoint x="650" y="250" />
            </Array>
          </mxGeometry>
        </mxCell>
        <mxCell id="W-xH0kflVY6gRq8pkjjk-78" value="Se registra en" style="shape=rhombus;perimeter=rhombusPerimeter;whiteSpace=wrap;html=1;align=center;" vertex="1" parent="1">
          <mxGeometry x="425" y="280" width="120" height="60" as="geometry" />
        </mxCell>
        <mxCell id="W-xH0kflVY6gRq8pkjjk-80" value="" style="edgeStyle=elbowEdgeStyle;fontSize=12;html=1;endArrow=ERmany;rounded=0;elbow=vertical;exitX=0.5;exitY=1;exitDx=0;exitDy=0;entryX=0.25;entryY=0;entryDx=0;entryDy=0;" edge="1" parent="1" source="W-xH0kflVY6gRq8pkjjk-78" target="W-xH0kflVY6gRq8pkjjk-69">
          <mxGeometry width="100" height="100" relative="1" as="geometry">
            <mxPoint x="430" y="410" as="sourcePoint" />
            <mxPoint x="530" y="310" as="targetPoint" />
          </mxGeometry>
        </mxCell>
        <mxCell id="W-xH0kflVY6gRq8pkjjk-81" value="" style="edgeStyle=elbowEdgeStyle;fontSize=12;html=1;endArrow=ERone;endFill=1;rounded=0;exitX=0;exitY=0.5;exitDx=0;exitDy=0;" edge="1" parent="1" source="W-xH0kflVY6gRq8pkjjk-78">
          <mxGeometry width="100" height="100" relative="1" as="geometry">
            <mxPoint x="300" y="480" as="sourcePoint" />
            <mxPoint x="400" y="230" as="targetPoint" />
            <Array as="points" />
          </mxGeometry>
        </mxCell>
        <mxCell id="W-xH0kflVY6gRq8pkjjk-82" value="Ítems" style="whiteSpace=wrap;html=1;align=center;" vertex="1" parent="1">
          <mxGeometry x="1030" y="430" width="100" height="40" as="geometry" />
        </mxCell>
        <mxCell id="W-xH0kflVY6gRq8pkjjk-83" value="Compuesto pr" style="shape=rhombus;perimeter=rhombusPerimeter;whiteSpace=wrap;html=1;align=center;" vertex="1" parent="1">
          <mxGeometry x="760" y="420" width="120" height="60" as="geometry" />
        </mxCell>
        <mxCell id="W-xH0kflVY6gRq8pkjjk-84" value="" style="fontSize=12;html=1;endArrow=ERone;endFill=1;rounded=0;exitX=0;exitY=0.5;exitDx=0;exitDy=0;entryX=1;entryY=0.5;entryDx=0;entryDy=0;" edge="1" parent="1" source="W-xH0kflVY6gRq8pkjjk-83" target="W-xH0kflVY6gRq8pkjjk-69">
          <mxGeometry width="100" height="100" relative="1" as="geometry">
            <mxPoint x="770" y="440" as="sourcePoint" />
            <mxPoint x="870" y="340" as="targetPoint" />
          </mxGeometry>
        </mxCell>
        <mxCell id="W-xH0kflVY6gRq8pkjjk-85" value="" style="fontSize=12;html=1;endArrow=ERmany;rounded=0;exitX=1;exitY=0.5;exitDx=0;exitDy=0;entryX=0;entryY=0.5;entryDx=0;entryDy=0;" edge="1" parent="1" source="W-xH0kflVY6gRq8pkjjk-83" target="W-xH0kflVY6gRq8pkjjk-82">
          <mxGeometry width="100" height="100" relative="1" as="geometry">
            <mxPoint x="900" y="510" as="sourcePoint" />
            <mxPoint x="1000" y="410" as="targetPoint" />
          </mxGeometry>
        </mxCell>
        <mxCell id="W-xH0kflVY6gRq8pkjjk-89" value="Cant_Unidades" style="ellipse;whiteSpace=wrap;html=1;align=center;" vertex="1" parent="1">
          <mxGeometry x="1030" y="610" width="100" height="40" as="geometry" />
        </mxCell>
        <mxCell id="W-xH0kflVY6gRq8pkjjk-90" value="Valor_Unidad" style="ellipse;whiteSpace=wrap;html=1;align=center;" vertex="1" parent="1">
          <mxGeometry x="1130" y="550" width="100" height="40" as="geometry" />
        </mxCell>
        <mxCell id="W-xH0kflVY6gRq8pkjjk-91" value="Descripción" style="ellipse;whiteSpace=wrap;html=1;align=center;" vertex="1" parent="1">
          <mxGeometry x="930" y="550" width="100" height="40" as="geometry" />
        </mxCell>
        <mxCell id="W-xH0kflVY6gRq8pkjjk-92" value="" style="endArrow=none;html=1;rounded=0;exitX=1;exitY=0;exitDx=0;exitDy=0;entryX=0.25;entryY=1;entryDx=0;entryDy=0;" edge="1" parent="1" source="W-xH0kflVY6gRq8pkjjk-91" target="W-xH0kflVY6gRq8pkjjk-82">
          <mxGeometry relative="1" as="geometry">
            <mxPoint x="1060" y="390" as="sourcePoint" />
            <mxPoint x="1220" y="390" as="targetPoint" />
          </mxGeometry>
        </mxCell>
        <mxCell id="W-xH0kflVY6gRq8pkjjk-93" value="" style="endArrow=none;html=1;rounded=0;exitX=0.5;exitY=1;exitDx=0;exitDy=0;entryX=0.5;entryY=0;entryDx=0;entryDy=0;" edge="1" parent="1" source="W-xH0kflVY6gRq8pkjjk-82" target="W-xH0kflVY6gRq8pkjjk-89">
          <mxGeometry relative="1" as="geometry">
            <mxPoint x="1060" y="290" as="sourcePoint" />
            <mxPoint x="1220" y="290" as="targetPoint" />
          </mxGeometry>
        </mxCell>
        <mxCell id="W-xH0kflVY6gRq8pkjjk-94" value="" style="endArrow=none;html=1;rounded=0;exitX=0.75;exitY=1;exitDx=0;exitDy=0;entryX=0;entryY=0;entryDx=0;entryDy=0;" edge="1" parent="1" source="W-xH0kflVY6gRq8pkjjk-82" target="W-xH0kflVY6gRq8pkjjk-90">
          <mxGeometry relative="1" as="geometry">
            <mxPoint x="1060" y="290" as="sourcePoint" />
            <mxPoint x="1220" y="290" as="targetPoint" />
          </mxGeometry>
        </mxCell>
      </root>
    </mxGraphModel>
  </diagram>
</mxfile>
